<?xml version="1.0" encoding="UTF-8"?>
<svg id="Capa_1" xmlns="http://www.w3.org/2000/svg" version="1.1" viewBox="0 0 267 71.1" fill="#ffffff">
  <!-- Generator: Adobe Illustrator 29.5.1, SVG Export Plug-In . SVG Version: 2.1.0 Build 141)  -->
  <path d="M78.2,58.9h0Z"/>
  <path d="M39.8,49.6h0Z"/>
  <polygon points="89.4 23.2 89.4 23.2 89.4 23.2 89.4 23.2 89.4 23.2"/>
  <path d="M30.9,13.8h0Z"/>
  <path d="M31.3,15.9h0Z"/>
  <polygon points="30.9 13.8 30.9 13.8 30.9 13.8 30.9 13.8 30.9 13.8 30.9 13.8"/>
  <path d="M33.1,19.1c-.1-.1-.3-.1-.4-.2h0c.2.1.3.2.5.3h0c-.1.1-.1,0-.1-.1Z"/>
  <path d="M99.7,6.6c-9.39-9.23-34.84,6.97-44.6,18.5-2.04,1.99,1.09-2.13,1.3-3.2,1.01-2.15-.41.56-.2-1-.36,1.12-1.17,2.96-2.2,3.2.21-1.04,1.13-2.83-.8-3.4,2.24-2.46,8.87-5.23,8.8-7.7h0c-2.25,3.27-9.84,7.78-8.93,7.12,1.22-.99-2.8-1.17-2.67-.01-5.44-2.21-8.51-8.41-10.83-12.6.09,6.98,11.28,10.5,9.84,15.7-.02.1.09.18.3.2-.72.14.68.34.1.3-.63.14.86.37,0,.1.92-.51.22-.31.5.6.41-.84-.09-1.22.5-1.8.47-1.77.85.84.5,1.1.78.27-.79.37,0,.7.37.1-.41.27-.16.3.63-.05-.1.18.34.4-1.19.28.31,1.12-.79.7.3-.34,0,.08-.2-.5h0c-.21-.02-.39.12-.1.2-.5.13,1.03,1.22-.2.3-1.96.4-1.1.12-1.4-.1.01.09.02-.76.4-.9-.08-1.1-.69.66-1.03-.76-1.18-.37-1.01-2.19-.34-.17-.46-8.21-1.84-1.63.5,1.8-5.5-5.91-16.33-15.63-24.86-19.01-1.05.57,1.12,1.02,1.94,1.24,1.89,1.61,0-.33-1.1.4,1.47.26-2.35.29-.6,0-.78-.35-.49-1.09-1.4-1.3-.05-.31,1.07.26.4-.2,1.56-.36-3.22-1.92-4.3-2C15.39,3.39,2.32,1.53,2,7.1c1.08,3.81,2.51,5.87,4.1,9.65,2.6,7.26,5.93,19.56,16.22,17.5,1.71-.36-.65.99-.92,1.7-1.24,1.95-1.34,4.6-2.74,6.19.88.36,2.54-4.56,2.34-4.64.6-1.81,1.47-.45.24.5,2.06-.72-1.22,4.3-2.44,5.21,2.85,5.2-1.28,4.63-.5,7.99,3.14,2.37.29,1.9,3.5,5.18.7,1.03-.74,4.42.37,2.13,1.37-1.91-2.86-5.01-.37-4.51,4.16,4.77-4.94,7.68-1.98,12.76.37.09-1.43-1-.22-1.46-.37.05-.16-.67,0-.2.07-.2,1.27-.17.6-.6.23,0,.64-.64.3-.8h0c.49-.46.88-1.34,1.6-2.5.47-1.65,5.03-1.59,4.1-.1.15,1.4,2.32-3.62,4.9,1.6-.43.69-.95-.61-1.1-.5.25,1.45,2.12,1.43,2.6,0-.59-2.14-.11-6.82,1.4-9.3h0c.7-.85.96.14,1.4,1,.06.53-.75-1.41-.85-.3.52-.09.62.69,1.04.69-.12-1.42.53.25.1-.19-.33.8.64.02.1-.6-.86.26-.38-.38-.6-.5,2.17.85.87.85.9,4.4-.3-.35.05-1.22,0-2.1-.43.31-.22,2.79-.4.9.1-3.02-.71-1.3-.7.6-.19,1.94-.06-4.4-.5-2.3,1.15-1.14.43-.22.4.2-.37-.11-.78-.98-.5-.1-.49.06-.29,1.24-.5,2,.58.36.22-1.18.6-1.5.72-.58.06,3.74.2,1.2-.34-.89-.22,1.02-.5,1.2-.31-.15-.13-1.62-.4-2.4-.95.86-.78,3.58-1,5.5.48-3.08.89.72,4-.4.65.81.06-.07.7-.3.32-.13.24.9.3.1.29-.55.48-.26.7-.8h0c.46-.64.55-1.89.5-2.3.07-1.3-.37-2.36-1.1-3.5h0c-.8-1.12-.82-1.55-3.1-1.71-.1-.73-.42-2.56-1.6-2.19-.55-.68-.44-1.91-.81-2.44-.57.61-2.3-1.35-1.4-1.77-1.81-.56-1.09-2.86-2.54-4.54-1.28-1.19,3.08-2.81,2.47-1.45-1.05,4.97.79,2.15.57,4.69h0c1.31-1.59,2.24-.21,1.44.41.35.53.95-.98.36-.51.41-.63.47-.12,1.21-1.01,1.11-.31,2.92-1.81,2.63-.27.05-.45,1.38-1.33.76-.62-.55,1.41-.61,1.43-.9,3.9-.23-1.9-.2-1.66-.3.3.13-.51.73,2.28.4,2.7-.1.41-.06.51.3-.1-.06.34.16.71,0,.8-.54.33.35,2.27-.1,1.6-.28-.98-.42-.3-.1.3.21.05.19.19.3.4-.05-.2.13-.73.2-.3,0-1.34-.26-1.31.3-1.6.24.73.81,1.42-.02.99-.02,1,.71,0,.62.61h0c-.12.91.09,3.91.4,1.7.85,1.01-.5-1.18,0-.7.7.17-.04-1.37.3-3.1h0c-.55-1.67.05,0-.48-.28-.11-1.27.48-1,.34-2.28.06-1.63.57,2.49.67,1.63-.31-.66.49-.7.07-1.5-.02-2.14.69-1.85.67-2.97.03-1.6.36-1.01.32.49.21-2.21.48-3.42.55-2.28.36-3.67-.05,2.41.4.44.54-1.36-.23-1.91.55-2.77,0,.62-.3,2.38.3,1.03.06-2.44-.15,1,.11.8.32-1.14-.42-3.49.49-1.15-.1-2.59-.29-1.53,0-.46,0-1.15.2-1.49.24-.19.29-.48-.09-1.64.36-2.3,0,.83.11-.19.51-.35.22-.51-.04,2.16-.31,1.8.53-.08.95-4.24.78-1.2.86-1.42.95-2.16,1-.69.47-1.52.67-1.2.12.1.41-.73,1.06-1.81,1.37-1.06-.4,1.56-.16.35.52.28.82-1.8.4.01.72-.28h0c1.42-2.1.12,1.24-.8,2.2-.4-.13-.61-.06-.1.3-.02.68-.26.21-.5.2h0c-.34,1.97.21,1.64.64.05.97-1.55.25.5,1.26-.75-.34.18-.78,2.53-.4,1.7-.29,2.94.47,4.99,1.4,8.7.48,1.03.52.61.49,1.79-1.21-1.37-1,.32.4.21,1.15-.08-.03-1.12.05-1.24,1.71,0,.37-1.12.5-1.71,1.07,1.35,1.66-6.14,1.55-7.55h0c-.07-2.32.21-3.17.64-.6-.15-1.14-.08-2.66.16-.9-.11-1.56.78.84.86-.25-.38-1.75.39-1.4.77-.97-1.29-2.33.47-.38.13-1.33,1.09,2.7.8.46,1.49,1.48-.13,2.15,1.27,2.15.86,2.76-.02.79.57,1.16.4-.8.3.34-.13,2.04.1,1.3.12.44.07-.13.2-.2.18-.08.03.47-.1.4-.24,1.17.42.03.4-.53.53.97-.58,3.53.4.43.4-.33-.46.6,0,1.3-.89,1.2.44-.1-.06,1.52.51-1.87.93-1.62.21.38.06,1.75.42-4.13.65-1.6-.03.95.72.3,0,2h0c-.14,3.54.62-3.02.3,1.9.36-.69.25-3,.5-2.9.13,1.24-.17,3.29.2.8-.03.94.24-.19.2.2h0c.19.32.07.63.1,1,.67-.69-.55,2.82-.5,2.4.96-1.71,1.13-2.83.7,0-.43.25-.58.87-1.1,1.1.6.67,1.24-3.23,1.5-1.5-.14,1.96-1.33,3.04-.92,3.9-.32.87-.11,1.48.32.3-.41.91.97-1.01,1-1.2.33,1.17,0,1.86-.3,2.3.61.31-.15,2.48.1,2.5-.8,2.87,2.2,4.12,3.4,5-.19.62-1.27-.89-2.1-.1,1.97,1.02,3.16-1.09,4,.1.7-2.6.93,1.5.7-.8.14-.64.55-.02.4-3-.18-1.71.9,3.09.7,4.1.25,2.02-.32,2.29.1,3,2.06,1.44,1.39-3.93,4.3-3.4,1.85,1.15,1.35.21,3.3-.3,3.15-.78,4.89,8.13,3.8,5.7.28,2.04,2.37,1.19,1.7-.4.33-3.24-3.64-4.07-3.16-10.11,1.31-3.05,1.97.54,2.57-1.19.29-.89-2.66-3.4,1.29-4.4,1.91,1.45-2.09-3.33-1.1-4.17,3.65-3.27.39-2.99-.57-5.73-1.72-3.88-.36-4.69.95.79.55,1.1-1.01-6.18-3.69-5.99,2.87.9,6.64.22,9.2-2.9,2.42-1.5.65-.16.5.5,2.27-1.27,1.44-2.03,2.3-3.7.09-.88,2.51-1.85,1.7-2.1-.32-2.27,1.85-2.72,1.4-4.9.15-1.06,1.5-1.58,1.6-2.4-.99-.02.05-1.15.1-1.8.65.03,0,.71,0,1h0c.59-.25.08-.8,1-.9-.37-.67.05-.78.4-1.6-.66.07-.01-2.84.9-2.3.02.25-.62.7-.3.8-.1,0-.2.1-.3.1.49.19,1.24-1.46.4-1.3,1.18.04-.1-1.14.6-1.9.62-1.3.51.6,1-1,.04-.95.66-1.27-.3-1.1.06-1.09.91-1.65.6-2.4ZM27.2,59.4c-1.26-.99-2.09-.12-1.1-1.9-.65.13-.48,1.78-1.3,1.3-5.82,2,2.49-4.59,2.4.6ZM30.8,60.8c-1.12-1.5-.46-1.25-2.4-1.4,1.34-2.64,4.82,3.18,2.4,1.4ZM23.6,34.2h0c1.2-.38-.24.97-.42.99,1.87-.3-1.76,1.17.42-.99ZM23.2,36.7c-.54-.39-.13-1.36.6-1.4,0,.5-.2,1.1-.6,1.4ZM20.1,41.7c1.13-3.05,3.28,2.51,1.4,3.1-.65-1.42-1.19-1.69-.6-2.6-.69.94-1.38.47-.8-.5ZM20.9,51.9c-1.13,3.55-.05-1.78-2.1-1.6-.85-2.12,2.49.34,2.1,1.6ZM21.1,48.8c-.47-.29.47-.99-.24-.36-2.52.21,1.16-2.14,1.58-.19,1.19.89.33,3.79-.48,1.21-.53-1.47.02.3-.86-.66ZM22.3,53c1.58-2.23-.38,1.29-.75-.27,1.25-3.15,4.13,1.83,2.5,1.4-.46-1.16-.94-1.07-1.75-1.14ZM30.7,16c-.25-.81.89-.08,1.3.1-1.6-.97-.92-.98.3-.2-2.65-2.93,1.6-3.33,4.7.31-1.48.57-1.41,1.59-3.42,1.21.54.19,1.81.84.32,1.18.17.19.32.58.6.6-.46.34-.41-.5-.7-.2-.55.02-.06.12.05.34-.53.49-1.21-.73-1.74-.64.91.69,2.04.86,1.89,1.59-.21-.02-2.68-1.47-1.84-.85,1.78.76,1.27,1.17,1.65,1.56-.8.17.85.86-.6.5-4.95-1.62-4.07-2.83-5.3-2.7-.57-.3-.96-.79-.2-.6h0c1.31.48.57-.11-.2-.3.29-.06,1.2.46.5-.1.36-.25.39.32.8,0-.2-.35-.83-.3-.29-.59.12.86.57.08.15-.27,1.19.56-.39-.6.44-.33.08.27.28.38.1,0,.33-.05.43-.06,1.1,0-1.23-.63-.38-.75.4-.6ZM30.6,23c.59-.7-7.2,5.06-9,3.1,2.76-.79-2.69.66,1.1-1.1-1.91.8-1.38-.33-1.6-1.9,2.03-.91,3.47-.93,4.8-1.5,1.12.25.04-.19.2-.4.9.67.44-.51.9-.1.48.31.89-.01,1.7-.4.52.36.85.06,1.7.3-.49-.06-1.36.37-.5.2.7.02-.36.15.3.6-.14-.75,1.01.11.4,0-1.09.27.96.91,0,1.2ZM20.3,22.1c-.55-.93,2.31-1.18-.2-.7-.89-2.71,4.3-1.7,4.3-2.8.11.57,1.16.31-.35.71-.55.4,1.56-.26,1.75.29,1.66-.04-.86.16.89.45-.4.34-1.43.55-.59.65-.49.26-.9.39-1.3.5-3.68,2.02-3.61.9-4.5.9ZM24.8,8.7c.51-.09.99.39,1.4.2.65.83-.59.17-1.1.1-.45.22-.86.07-.3-.3ZM24.6,10.2c1.68-.84,3.49.53,4.8,1.4-1.9-1.02-.56.84-2.5-.2-.72-.21,1.81.84.41.65.08.62,1.28-.18.59.45-.92,0-.26-.06-.2.5h0c1.27-.22-1.45.71-.6,1.1h0c.5.24-.59,1.06.3.9-.62.38-.49-.53-.8-.2.28.98-.43,0-1.2-.2,1.3.67,1.25.99-.2.5.41.38,2.08.6.8.6.77.39.62.57.1.6h0c-.32.44.04.51-.5,0,.6-.39-.87-.19.1.2-.43.27.87.21.1.4h0c-.11.78-2.05-1.04-2.4-1.6h0c-.41-.66.17-.73.47-.56-.5-.16-.53-1.33-.37-1.04.05-.15.15-.3.3-.1-.33-.78-.11-.63-.3-1.5h0c.66-.08-.66-1.13,1.1-1.9ZM23.4,16.8c-.37.44.19.35-2.1.8.33.38,3.07-.77,1.6,0,.4.82-1.34-.09-.46.6.38.16-.59-.21-.49.11.39.93-.62-.85-.76.6-1.04.97-4.88-.87-1.09-1.71-2.63.48-1.17-1.18,1-1.2h0c1.32-.22,0,.9,1.31.5-.55.55.56.34.99.3ZM14,7.6c2.63-.2-1.5,1.09.2.7-.08.84-1.13-.14-.8.6,2.41-.06.98,2.01,0,.7-.76-1.15-.9-1.47.7-1.4-.24-.22-1.93-.04-.6-.4-1.25-.2-.11-.37.5-.2ZM18.2,13.7c.1-.43,2.85-.51,1.3-.2-.15.69,1.02-.31.8.4h0c.92-.18-1.37.64-.3.3.62.05,0,.63-.4.7.32.69-2.14-.06-.8.8-1.57,1.15-1.15-.28-1.5-1.4-.93-.79.73-.47,1.2-.7-.07.02-.37-.07-.3.1ZM21.2,7.2c.95.43.85.6-.4.4-.87-.22-.58-.82.4-.4ZM20,8.5c2.46-.4,1.24.67.4-.5,2.25.27.9.21-.3-.4.82.22,3.25.16,2.23.93.35-.35.74.81.67-.23.08.74-.09.66-.6,1.1-.04-.55-.79.17-1.56-.33-1.37.64-2.4.08-.84-.57ZM19.6,10.4c.96.62.54-.39,1.6.1-1.32.53.33.16-.3.7,1.04.93-.83-.16,0,.8-.31.13-.8-.54-.9.1.86.22,0-.05-.4-.1.49.26-.04.33-.5.4.74-.63-.54-.03-.9-.1.13.81-1.36.5-2.5,1,.16-.22-.84-1.98.6-1.9-.44-.2-1.03.1-1.3-.7,1.92-.23,1.5-.32-.2-.2,1.39-.42,3.39-.18,4.8-.1ZM13.9,27.6c-1.13-.6.23-.6.5-.9-1.03.31-.78-.12-1.1-.9h0c-.41-.99.92,0,1.1.4h0c.62.31-.86.39-.61.46,1-.5,1.1.76.11.94ZM11.8,22.8c.04-.64-.08-.16-.1-.6.56-.34,1.31.61.1.6ZM12.5,22.6c.47.45-1.17.72-.8.4.27-.13.68-.09.8-.4ZM16.4,29.6c-.2.1-.4.1-.6.2-.2-.47.29-.58.6-.2ZM14.5,27.5c.38-.06.18.4-.1.3-.64.17-.51-.35.1-.3ZM14.5,27.9c.46-.19.17.56,0,.3-.1-.1-.3-.2,0-.3ZM15.8,29.9c.3-.1.5,0,.6-.3.46.53-1.03.87-.6.3ZM8.5,11.8c-.3.1-.6.1-.9.1.4-.3.5-.3.9-.1ZM9,15.4c1.65-.59-.16.53,1,.2.56.6-1.4.74-1-.2ZM8.4,14.2c-.75-1.62.52-1.2-.5-1.8-.59-.4.51-.4.7-.2-.32.13-.57.16-.1.2,1.15-.25.58,3.4-.1,1.8ZM9.3,16.2c.38-.28,1.54-.31.7.1-.25.14-1.33.28-.7-.1ZM9.4,16.6c.37-.09.5-.28.8-.2.44.38-1.48.66-.8.2ZM6.4,8.6c2.16.15-.08,2.02-.2.4.62.01-.16-.25.2-.4ZM7.6,9.6c.33.84-.3.39-.6.8,2.96,1.37-3.32-.33.6-.8ZM5.2,6.2c-.95.18-1.27-.02-.3-.4-1.27-.17.26-1.25.4.3.29,1.72-2.62.57-.1.1ZM4.9,7.9c-.52-.81-.73-.86.4-.9-.11.31-.22.46-.4.9ZM9.8,17.9c-1.43-1.27,1.75-1.15-.1-.6.63.3.55-.31.6.6-.2-.2-.3-.1-.5,0ZM10.2,20.1c1.63-1-.31.24,0-.4.46-.18.53-.34,0-.2.35-.32,1-.34.1-.3.07-.42,1.37-.23.9.1-.32,0-.14.15,0,.1,1.78.32-.81,1.63.5,1.2-2.42,1.11.6-1.22-1.5-.5ZM12.3,24.2c-.42-.7.52-.75-.4-.6.29-1.24,1.53.48.4.6ZM17.8,32.5c.22.01-2.73-1-2.1-2.1.55-1,2.34.33-.1.5.52.2,1-.22,1.6-.3.48.56-2.01.83.3.4-2.4,1.42,1.05-.36.3,1.5ZM24.1,28.2c-2.29-2.06,7.86-4.07,8-5h0c1.42.53.41-.64,1.54-.1.3,1.44,1.28-.49.96.9.42-.06.4-.32.2.1.22-.05.68-.34.2.1-.87.71-.45.5.3.9.48.39-.5-.02-.3.6.18-.36.61,1.11,0,.8-.4.39.34,1.27-1,1.7-1.32.33-12.21,4.48-9.2,1.7-1.48.25.12-1.35-.7-1.7ZM31.7,38.2c-3.38,2.12-3.24.97-2.95-2.12-.48-.12-1.3-.97.11-1.22-.72,0-1.38.31-.62-.91.49-1.43-.92-1.72,1.32-2.1,2.27-.63-3.08.61-3.36-.25h0c-1.44-1.03-.93.46-1.65-.19-.27.27-.61.66-.85.79,1.2.14-.31.31-.5-.3h0c2.69-.94,6.3-2.44,9.6-2.8-.37-.29.53-.04.7-.2h0c.5-.5.34.07.57.3.48-.55,1.01.12.17.03-.52.49.92-.05.4.34-.69.11-.96-.16-.25.09-.18.55.18-.13.32-.03.26.23-.2.33,0,.47-.21-.18-.61.6.17.11,1.46.12-1.31.4,1.07.25-4.61,1.34,10.45-1.44,9.76-.13.55,1.14-2.49,1.29-2.98,1.83-1.86.78-2.23.65-4.92,1.54.76.2-.83.1-.9.6.84-.92-4.41.17-6.2.5,7.81-.64,5.58-.56,1,3.4ZM37.6,41.2c.03.57-.29.2-.5,0,.13.57-.04.49-.4.2.23.91-.56.46-.9.5.18.7-4.92,2.17-3.9-1.6-.3.79.53-2.21,0-2.5,2.15-.56,2.92-2.62,4-3.6,3.19-1.33,7.88-1.96,8.6-2-.55,0,.25.73.5.2-.59.9-.51-.27-1.1.7.46-.37.41.77.2.8-.14-.38.29-.89-.5-.6.38.91-1.14,1.63-1.5,2.3-.73.56-.74,1-1.2,1.4-.35.71-.77.19-.2,1.3.29.32-.43.3-.11,0-.32-.02-.47.25-.86.24.75.71-.92.44-.74.96-.17.04-.67.97.1.6-.12.28-.45.13,0,.4-1.27.09-1.03,1.13-1.5.7ZM71.2,60.9c-.24.24-.55,1.32-.5.3-.08-.84,1.3-1.27.5-.3ZM72.4,60.2c-.33-.93-.22.43-1,.4-.76-1.31,3.76-2.36,1-.4ZM79.1,59.4c.05.28-.82-.65-1.3-.6-6.55,1.18.82-4.49,1.3.6ZM80.5,52.9c-1.05-.02-4.34,4.36-2.7-.4.86.02,1.8,1.81.3-.3.5-1.03,2.3-.11,2.4.7ZM80.4,43.1c1.71-5.08,3.07,3.61,0,0,.5.63,1.92,1.23.6,1.9h0c-1.27,1.28-1.34-1.49-.6-1.9ZM79.8,48.6c2.97-2.73,3.05,2.26,0,0,2.34,2.22-1.38,3.27,0,0ZM79.4,34.9c-.18.53.03,2.61-.3,2.6-.49-1.2-1.65-3.57.3-2.6ZM76,11.4c4.29-1.94,3.29,2.54,2.6,2.3,2.75-.92.53,4.28-.8,2.8-.78.29-.2-.18.1-.3-.33,0-.63-.23-.2-.4.31-.74-1.67-.43-1.3-1.6h0c-.37-.12-.88-.93-.17-1.1-.81-.51-.06-.74-.92-.95,1.77-.54-.94-1,.69-.75ZM67.9,15.4c.56-.87,4.3-2.54,3.7-2-.04.45.44-.4.7.1-.52-.32-.97,1.04-.5.4.27.68-.77.27.2.8-.1.29.73.7.1.7-.09.67.24-.05.5.2-.17.23-.04.5.3.3-.33.77.46.37-.2.7.85.01.13,1.29,1,.5-.57.62-.05.3.4.3-.71.57,1.05.84,1.3,1.2,1.18-.01-.33.46-.4,1.1.2-.59-.38.09-.6.3-1.99,1.46-5.14,3.88-5-.4-.41-.71-.19-.71-1-1.3.21-.31.41-1.34-.1-.6-.93-.1.78-.65-.2-.7.23-1-.72.29-.44-.21-.28-.24.57-.38-.3-.63-.57.13.59.42.18.41-1.32.42-.38-.55.36-1.18ZM81.3,8.7c0-.09,1.19-.07.4-.4-.06-.18.29-.08.4-.1h0c.22-.05.56-.33.1-.3h0c.81-.4,1.48-.83,1.2.4h0c.1.2.2.3.3.5h0c.7.28-.99.6.45.44.59.18-.31.35.14.36.82-.21-.26.78-.49.2h0c-.78.48-1.07.03-2.2.3.49-.3.25-.24-.1-.35-.09-.31.58-.19.1-.35.58-.21-.28-.59-.3-.7ZM78.2,9.6c1.96-.4.61.78-.6.3-1.46.88-.31-.21.6-.3ZM89.8,10.5c-2.31,1.05-1.46-2.63.6-2.1.22,1.39-2.08.52,0,1.1-2.39.62.56-.44-.6,1ZM83.8,19.9c-.42-.19-.95-.08-1.4-.3h0c-2.02-1.19-3.64-1.29-1.6-3.2.84.08,6.81,1.4,2.3.6,1.11.37,3.2,1.43,1.6,1.9h0c.54.29-.3,1.68-.9,1ZM83.8,14.3c-.84.61,1.71.15,0-.4.87.01,1.73.27,2.81.5.55.7-1.52.25-.71.64.15.07.59.1.56.26-3.01-.26,1.38.1-.76,1.57-1.68-.33-4.02-2.84-1.91-2.57ZM85.8,11.2c-1.12.47,4.44.29.3-.2,1.81-.31,2.72,1,.7,1.3,2.91,1.14-2.23,1.73-3.3.6,1.32-.63-.92-.49-.6-.7.07-1.42-.26.25,1.7-1.1-.24,0,.05.26.3.2h0c.3.08.12-.57.9-.1ZM77.5,21.9c4.09,2.08,5.2,1.2,3.3,5.3-3.42-1.23-11.08-5.56-8.1-5.7h0c2.43-1.29,2.64-.26,4.8.4ZM62.5,39c-.31.08-.09-.27-.6-.3-.36-1.37-1.86-2.65-2.56-3.7-.41-.78.09-1.69-1.28-2.7-.47-.41.7.37.6.13-1.21-1.06.41.21.73-.09-1.05-.76,1.22-.18.32-.64-.99-.53-.39-.56-1.76-1.19.42-.18,2.22,1.1,1.34.3-5.19-1.3,12.57-.14,14.65,1.46-1.14-.54-7.61-1.71-5.52-1.11,4.66-.44,8.62,5.06,2.22,2.96-2.64-.38,2.34.72,2.76.82-1.25.19.3.46.68.58-.8.08.75.51.71.22.34.04-1.82,2.4-1,1.68.15.92-1.02-.35-1.25-.16,1.44-.07,1.77,3.64.85,2.56-1.6.13-6.39-4.51-5.29-3.03,2.01.89,3.03,4.97,1.83,5.78-1.84,1.09-3.14-1.29-4.86-.63.14-.46-.17-.36-.84-.54-.06-.12.2-.57-.24-.28-.6-.8-1.35-2.26-1.5-2.1ZM68,49.8c-.72,1.69-.37-.05-1-.8-.25.4.3,1.38.5,1.9.72,1.63-2.07.43-2,1.37-.51-1.07-.62-.79-.9-3.27.16.76.35-.09.19-.21-1.04-.95-.83-.62-.43-.83-.91-1.42-.78-2.45.24-1.96-.21,1.09,1.4-1.04-.04-.46-.39-1.57.48-1.77,1.17.34.24,1.18.47.23.09-.35-.48-2.13-1.37-2.2-.66-3.22-.28.86,2.93-.24,3.65,1.8.68,0-1.46-1.5,1.47-.5,1.41.68,1.7,5.09-.08,3.29-.65,2.07-.28,2.13-2.2,2.9ZM64.3,49.9v-.4c.3,1.03.55,4.39-.4,2.8-.16-.21-.09-.69-.1-.8.31,1.56-.47-4.69.5-1.6ZM71.1,42.8c.46.74.9.63,1.25.81,1.81,2.51-4.02.69-1.25-.81ZM72.4,40.1c.15.2,2.4.3,1.2,1.7-1.78,5.43-3.96-4.58-1.2-1.7ZM78.7,32.8c0-.87-.84-.34-1.1.2-.56-.44.37-.76-.2-.7-.21.96-.8-.72-.6.7-.26-.16-.62-1.37-.6-.2-.21,0-.36-.8-.5-.2.12-1.29-.56-.22-.7.3-2.3-2.31-8.83-.86-7-3.1,1.99-.49.13.08-.1-.8-.2,0-.2-.4-.4-.4,2.82.72,6.99.9,9.3,2.4.77.46,3.02.19,1.9,1.8ZM68.1,29.4h0c.1,0,.2,0,.4.1q-.3.1-.4-.1ZM79.1,31c-1.44.57-3.24-.86-4.9-.8-3.92-1.24-7.19-1.79-5.44-4.04-.9.12.51-.39-.6-.54-.33-.48,1.24-.56.14-1.13.84.34.55-.16.7-.64.42.14,1.05-.16.17-.35,2.7.19,3.73,2.1,7.42,3.37,3.12.81,2.2,1.46,2.06,3.73.17,1.42.06.24.44.39ZM82.8,23.3c-2.8-.68-5.18-1.91-6.5-2.9.98-.44-.46-.86.2-.9.12.61.78.22,0-.1,1.08-.01.86-1.62,1.9-.7-.12.41-1.26.19-.06.26.79-.73,8.15.97,4.46,4.34ZM91,19.4c.68-.75.89-.51.8.5-.28-.13-1.4-.23-.8-.5ZM93,15.2c.37.22.74,1.57,0,1.3-1.38-.06-.94-.87,0-1.3ZM86.5,31.4c-1.13.75-1.28,2.55-3.1,1.8,2.17.89,2.11-7.19,3.1-1.8ZM88.6,27.7c-2.99-.8,1.35-.05-.5.9-2.56.86.42-5.86.5-.9ZM90.5,23.9c-1.79-.46.82.02-.9,1.6-2.05-1.44,2.08-5.04.9-1.6ZM92,20.3c-.69,2.93-2.48-.65-.3,0-2.53-.7.42-1.08.3,0ZM92.7,18c-.3.59-1.17-.33-.9-.8.32-.54,1.84-.24.9.8ZM93.3,16.8c-.34-.07-1.69.04-1.49-.4.55.02,1.2.07,1.49.4ZM93.1,13.6c2.06.84-.71,1.91-.1-.51.79-.8,2.07.99.1.51ZM94.2,13c-1.46,0-1.03-.37,0-1,.45-.04-.21.62,0,1ZM94.5,10.4c.4.1.8.1,1.2.2-1.42,2-1.96-1.87-.1-1.7.7,1.02-.2.95-.49,1.13,1.76.58-.36.41-.61.37,0-.1,0,0,0,0ZM97.5,8.5c-1.33-.72.92-.12-.3-.6-2.52-1.9,1.65-2.16.3.6Z"/>
  <path d="M89.4,23.2h0Z"/>
  <polygon points="64.6 56.5 64.6 56.5 64.6 56.5 64.6 56.5"/>
  <polygon points="31.3 15.9 31.3 15.9 31.3 15.9 31.3 15.9"/>
  <path d="M124.2,18.3c-1.5-1.7-3.6-2.6-6.3-2.6s-5.1,1.1-7.1,3.2-2.9,4.8-2.9,7.9,1,5.7,2.9,7.9c2,2.1,4.3,3.2,7.1,3.2s4.8-.9,6.3-2.6v2h6.3V7.9h-6.3v10.4ZM122.8,30.6c-.9.9-2.1,1.4-3.6,1.4s-2.7-.5-3.6-1.4-1.4-2.2-1.4-3.7c0-1.6.5-2.8,1.4-3.7.9-.9,2.1-1.4,3.6-1.4s2.7.5,3.6,1.4,1.4,2.2,1.4,3.7c0,1.5-.5,2.7-1.4,3.7Z"/>
  <rect x="135.1" y="16.3" width="6.3" height="21"/>
  <path d="M138.3,6.9c-1,0-1.9.4-2.7,1.1-.7.7-1.1,1.6-1.1,2.7,0,1,.4,1.9,1.1,2.7.7.7,1.6,1.1,2.7,1.1,1,0,1.9-.4,2.7-1.1.7-.7,1.1-1.6,1.1-2.7,0-1-.4-1.9-1.1-2.7-.8-.8-1.7-1.1-2.7-1.1Z"/>
  <path d="M163.5,28.1h4.4c2.9,0,5.3-1,7.3-2.9,2-2,3-4.3,3-7.1s-1-5.2-3-7.2-4.4-2.9-7.3-2.9h-11.2v29.5h6.7v-9.4h.1ZM163.5,14.2h4.4c1,0,1.9.4,2.6,1.1.7.7,1,1.6,1,2.7s-.3,2-1,2.7-1.5,1.1-2.6,1.1h-4.4v-7.6Z"/>
  <path d="M201.7,37.3v-21h-6.3v2c-1.5-1.7-3.6-2.6-6.3-2.6s-5.1,1.1-7.1,3.2-2.9,4.8-2.9,7.9,1,5.7,2.9,7.9c2,2.1,4.3,3.2,7.1,3.2s4.8-.9,6.3-2.6v2h6.3ZM194,30.6c-.9.9-2.1,1.4-3.6,1.4s-2.7-.5-3.6-1.4c-.9-.9-1.4-2.2-1.4-3.7,0-1.6.5-2.8,1.4-3.7.9-.9,2.1-1.4,3.6-1.4s2.7.5,3.6,1.4c.9.9,1.4,2.2,1.4,3.7s-.4,2.7-1.4,3.7Z"/>
  <path d="M216.5,15.7c-3.1,0-5.7,1.1-7.9,3.2s-3.2,4.8-3.2,7.9,1.1,5.7,3.2,7.9c2.2,2.1,4.8,3.2,7.9,3.2s5.7-1.1,7.9-3.2c2.2-2.1,3.2-4.8,3.2-7.9s-1.1-5.7-3.2-7.9c-2.2-2.1-4.8-3.2-7.9-3.2ZM219.9,30.4c-.9.9-2.1,1.4-3.5,1.4s-2.5-.5-3.5-1.4c-.9-.9-1.4-2.1-1.4-3.6s.5-2.7,1.4-3.6,2.1-1.4,3.5-1.4,2.5.5,3.5,1.4c.9.9,1.4,2.1,1.4,3.6,0,1.5-.5,2.7-1.4,3.6Z"/>
  <rect x="231.2" y="6.6" width="6.3" height="30.7"/>
  <path d="M257.4,16.3v2c-1.5-1.7-3.6-2.6-6.3-2.6s-5.1,1.1-7.1,3.2-2.9,4.8-2.9,7.9,1,5.7,2.9,7.9c2,2.1,4.3,3.2,7.1,3.2s4.8-.9,6.3-2.6v2h6.3v-21h-6.3ZM256,30.6c-.9.9-2.1,1.4-3.6,1.4s-2.7-.5-3.6-1.4c-.9-.9-1.4-2.2-1.4-3.7,0-1.6.5-2.8,1.4-3.7.9-.9,2.1-1.4,3.6-1.4s2.7.5,3.6,1.4c.9.9,1.4,2.2,1.4,3.7s-.5,2.7-1.4,3.7Z"/>
  <polygon points="157.2 44.6 155.9 44.6 155.9 61.3 165.1 61.3 165.1 60.1 157.2 60.1 157.2 44.6"/>
  <path d="M177.4,52.1c-.5-.9-1.2-1.6-2.1-2.2-.9-.5-1.9-.8-3-.8-1.7,0-3.2.6-4.4,1.8s-1.8,2.7-1.8,4.4c0,1.8.6,3.2,1.8,4.4s2.7,1.8,4.4,1.8c1.1,0,2.1-.3,3-.8s1.6-1.2,2.1-2.2v2.7h1.2v-11.8h-1.2v2.7ZM175.9,59c-1,1-2.2,1.5-3.6,1.5s-2.6-.5-3.6-1.5-1.5-2.2-1.5-3.6.5-2.6,1.5-3.6,2.2-1.5,3.6-1.5,2.6.5,3.6,1.5,1.5,2.2,1.5,3.6-.5,2.6-1.5,3.6Z"/>
  <path d="M184.8,46l-1.2.4v3h-2.6v1.2h2.6v7.8c0,1.3.4,2.2,1.2,2.7s2,.6,3.6.3v-1.1c-.8.1-1.5.1-2,.1s-.9-.2-1.2-.5-.4-.8-.4-1.5v-7.8h3.6v-1.2h-3.6v-3.4h0Z"/>
  <path d="M191.8,44.6c-.3,0-.5.1-.7.3s-.3.4-.3.7.1.5.3.7.4.3.7.3.5-.1.7-.3.3-.4.3-.7-.1-.5-.3-.7c-.2-.2-.4-.3-.7-.3Z"/>
  <rect x="191.2" y="49.4" width="1.2" height="11.9"/>
  <path d="M201.6,49.1c-2,0-3.4.8-4.3,2.5v-2.3h-1.2v11.9h1.2v-6.2c0-1.5.4-2.7,1.2-3.5s1.8-1.2,3-1.2c1.1,0,2,.3,2.6,1s.9,1.5.9,2.7v7.4h1.2v-7.4c0-1.4-.4-2.6-1.3-3.5-.8-.9-1.9-1.4-3.3-1.4Z"/>
  <path d="M220.1,52.1c-.5-.9-1.2-1.6-2.1-2.2-.9-.5-1.9-.8-3-.8-1.7,0-3.2.6-4.4,1.8s-1.8,2.7-1.8,4.4c0,1.8.6,3.2,1.8,4.4s2.7,1.8,4.4,1.8c1.1,0,2.1-.3,3-.8s1.6-1.2,2.1-2.2v2.7h1.2v-11.8h-1.2v2.7ZM218.6,59c-1,1-2.2,1.5-3.6,1.5s-2.6-.5-3.6-1.5-1.5-2.2-1.5-3.6.5-2.6,1.5-3.6,2.2-1.5,3.6-1.5,2.6.5,3.6,1.5,1.5,2.2,1.5,3.6-.5,2.6-1.5,3.6Z"/>
</svg>